<?xml version="1.0" encoding="UTF-8"?>
<svg xmlns="http://www.w3.org/2000/svg" xmlns:xlink="http://www.w3.org/1999/xlink" width="300px" height="387px" viewBox="0 0 300 387" version="1.1">
<g id="surface1">
<path style=" stroke:none;fill-rule:nonzero;fill:rgb(0%,0%,0%);fill-opacity:1;" d="M 101.859375 185.542969 C 102.199219 186.28125 102.632812 186.984375 103.125 187.652344 C 103.839844 184.21875 104.578125 180.796875 105.28125 177.363281 L 99.796875 177.363281 C 100.230469 180.152344 100.652344 182.964844 101.859375 185.542969 Z M 101.859375 185.542969 "/>
<path style="fill-rule:nonzero;fill:rgb(0%,0%,0%);fill-opacity:1;stroke-width:1;stroke-linecap:butt;stroke-linejoin:miter;stroke:rgb(100%,100%,100%);stroke-opacity:1;stroke-miterlimit:10;" d="M 210.302886 384.060443 C 205.712895 377.752087 204.589303 370.235234 203.465711 362.71838 L 162.633913 362.71838 C 165.215783 375.093393 167.725935 387.347555 170.236086 399.674228 C 176.140919 390.828028 186.97043 387.540915 197.154473 386.839986 C 201.314153 386.525777 205.521645 386.598287 209.753043 386.912496 C 209.944293 385.969868 210.111636 385.07558 210.302886 384.132952 C 210.302886 384.132952 210.302886 384.060443 210.302886 384.060443 Z M 210.302886 384.060443 " transform="matrix(0.490197,0,0,0.484848,0,1.5)"/>
<path style=" stroke:none;fill-rule:evenodd;fill:rgb(100%,100%,100%);fill-opacity:1;" d="M 82.617188 171.339844 C 82.652344 171.304688 82.675781 171.304688 82.710938 171.28125 C 83.660156 170.566406 84.679688 169.839844 85.546875 168.984375 C 86.191406 168.304688 86.8125 167.601562 87.433594 166.898438 C 88.289062 165.832031 89.121094 164.660156 90.199219 163.804688 C 90.972656 163.195312 91.839844 163.042969 92.730469 163.40625 C 93.351562 163.652344 93.878906 164.085938 94.371094 164.507812 C 95.074219 165.152344 95.789062 165.890625 96.339844 166.652344 C 97.886719 168.738281 98.648438 171.1875 99.175781 173.660156 C 103.558594 171.339844 106.488281 166.746094 106.488281 161.414062 C 106.453125 153.667969 100.289062 147.609375 92.519531 147.609375 C 84.5625 147.644531 78.480469 153.738281 78.480469 161.601562 C 78.515625 165.433594 80.085938 168.855469 82.617188 171.339844 Z M 82.617188 171.339844 "/>
<path style=" stroke:none;fill-rule:evenodd;fill:rgb(100%,100%,100%);fill-opacity:1;" d="M 97.605469 168.890625 C 96.808594 167.203125 95.660156 165.703125 94.242188 164.484375 C 93.351562 163.6875 92.121094 162.855469 90.878906 163.441406 C 89.777344 163.957031 88.96875 165.09375 88.195312 166.007812 C 86.964844 167.507812 85.734375 168.984375 84.1875 170.203125 C 83.695312 170.601562 83.167969 171 82.652344 171.363281 C 85.207031 173.789062 88.6875 175.289062 92.578125 175.289062 C 94.957031 175.289062 97.171875 174.703125 99.117188 173.695312 C 98.8125 172.042969 98.34375 170.414062 97.605469 168.890625 Z M 97.605469 168.890625 "/>
<path style=" stroke:none;fill-rule:evenodd;fill:rgb(0%,0%,0%);fill-opacity:1;" d="M 82.617188 171.339844 C 82.652344 171.304688 82.675781 171.304688 82.710938 171.28125 C 83.660156 170.566406 84.679688 169.839844 85.546875 168.984375 C 86.191406 168.304688 86.8125 167.601562 87.433594 166.898438 C 88.289062 165.832031 89.121094 164.660156 90.199219 163.804688 C 90.972656 163.195312 91.839844 163.042969 92.730469 163.40625 C 93.351562 163.652344 93.878906 164.085938 94.371094 164.507812 C 95.074219 165.152344 95.789062 165.890625 96.339844 166.652344 C 97.886719 168.738281 98.648438 171.1875 99.175781 173.660156 C 103.558594 171.339844 106.488281 166.746094 106.488281 161.414062 C 106.453125 153.667969 100.289062 147.609375 92.519531 147.609375 C 84.5625 147.644531 78.480469 153.738281 78.480469 161.601562 C 78.515625 165.433594 80.085938 168.855469 82.617188 171.339844 Z M 92.707031 154.40625 C 95.109375 154.5 96.738281 156.246094 96.679688 158.660156 C 96.644531 161.144531 94.792969 162.832031 92.273438 162.738281 C 89.894531 162.644531 88.265625 160.898438 88.289062 158.484375 C 88.324219 156.035156 90.175781 154.3125 92.707031 154.40625 Z M 92.707031 154.40625 "/>
<path style=" stroke:none;fill-rule:evenodd;fill:rgb(0%,0%,0%);fill-opacity:1;" d="M 97.605469 168.890625 C 96.808594 167.203125 95.660156 165.703125 94.242188 164.484375 C 93.351562 163.6875 92.121094 162.855469 90.878906 163.441406 C 89.777344 163.957031 88.96875 165.09375 88.195312 166.007812 C 86.964844 167.507812 85.734375 168.984375 84.1875 170.203125 C 83.695312 170.601562 83.167969 171 82.652344 171.363281 C 85.207031 173.789062 88.6875 175.289062 92.578125 175.289062 C 94.957031 175.289062 97.171875 174.703125 99.117188 173.695312 C 98.8125 172.042969 98.34375 170.414062 97.605469 168.890625 Z M 97.605469 168.890625 "/>
<path style=" stroke:none;fill-rule:evenodd;fill:rgb(100%,100%,100%);fill-opacity:1;" d="M 96.679688 158.660156 C 96.644531 161.144531 94.792969 162.832031 92.273438 162.738281 C 89.894531 162.644531 88.265625 160.898438 88.289062 158.484375 C 88.324219 156.035156 90.175781 154.3125 92.707031 154.40625 C 95.109375 154.5 96.738281 156.246094 96.679688 158.660156 Z M 92.390625 161.695312 C 93.902344 161.753906 95.566406 160.160156 95.636719 158.660156 C 95.695312 157.160156 94.125 155.507812 92.578125 155.449219 C 91.03125 155.390625 89.4375 156.914062 89.367188 158.484375 C 89.308594 160.007812 90.855469 161.636719 92.390625 161.695312 Z M 92.390625 161.695312 "/>
<path style=" stroke:none;fill-rule:evenodd;fill:rgb(14.117647%,14.117647%,14.117647%);fill-opacity:1;" d="M 92.390625 161.695312 C 90.855469 161.636719 89.308594 160.007812 89.367188 158.484375 C 89.4375 156.914062 91.03125 155.390625 92.578125 155.449219 C 94.125 155.507812 95.695312 157.160156 95.636719 158.660156 C 95.566406 160.160156 93.902344 161.753906 92.390625 161.695312 Z M 92.390625 161.695312 "/>
<path style=" stroke:none;fill-rule:nonzero;fill:rgb(8.627451%,3.921569%,40%);fill-opacity:1;" d="M 132.761719 191.261719 L 132.761719 199.59375 L 137.90625 199.59375 L 137.90625 191.636719 C 136.242188 191.296875 134.519531 191.167969 132.761719 191.261719 Z M 132.761719 191.261719 "/>
<path style=" stroke:none;fill-rule:nonzero;fill:rgb(0%,0%,0%);fill-opacity:1;" d="M 137.90625 191.542969 L 137.90625 182.542969 L 149.964844 182.542969 L 149.964844 195.609375 C 150.152344 195.667969 150.339844 195.738281 150.527344 195.761719 C 152.0625 196.195312 153.609375 196.382812 155.144531 196.382812 L 155.144531 181.710938 C 155.144531 178.863281 153.703125 177.433594 150.832031 177.433594 L 137.050781 177.433594 C 134.179688 177.433594 132.761719 178.863281 132.761719 181.710938 L 132.761719 191.203125 C 134.519531 191.109375 136.21875 191.238281 137.90625 191.542969 Z M 137.90625 191.542969 "/>
<path style=" stroke:none;fill-rule:nonzero;fill:rgb(8.627451%,3.921569%,40%);fill-opacity:1;" d="M 152.53125 196.253906 C 151.664062 196.136719 150.796875 195.914062 149.964844 195.667969 L 149.964844 199.59375 L 155.144531 199.59375 L 155.144531 196.441406 C 154.289062 196.464844 153.386719 196.40625 152.53125 196.253906 Z M 152.53125 196.253906 "/>
<path style=" stroke:none;fill-rule:nonzero;fill:rgb(0%,0%,0%);fill-opacity:1;" d="M 158.660156 195.984375 C 160.394531 195.585938 162.117188 195.058594 163.816406 194.484375 L 156.878906 194.484375 L 156.878906 196.253906 C 157.464844 196.195312 158.074219 196.101562 158.660156 195.984375 Z M 158.660156 195.984375 "/>
<path style=" stroke:none;fill-rule:nonzero;fill:rgb(0%,0%,0%);fill-opacity:1;" d="M 161.191406 191.085938 L 171.714844 191.085938 C 174.023438 189.914062 176.273438 188.660156 178.558594 187.464844 C 177.84375 186.457031 176.671875 185.964844 174.984375 185.964844 L 162.058594 185.964844 L 162.058594 182.542969 L 179.261719 182.542969 L 179.261719 177.433594 L 161.191406 177.433594 C 158.296875 177.433594 156.878906 178.863281 156.878906 181.710938 L 156.878906 186.832031 C 156.878906 189.667969 158.296875 191.085938 161.191406 191.085938 Z M 161.191406 191.085938 "/>
<path style=" stroke:none;fill-rule:nonzero;fill:rgb(8.627451%,3.921569%,40%);fill-opacity:1;" d="M 171.808594 191.085938 L 174.117188 191.085938 L 174.117188 194.484375 L 163.875 194.484375 C 162.796875 194.847656 161.71875 195.1875 160.640625 195.492188 C 159.410156 195.855469 158.144531 196.136719 156.878906 196.3125 L 156.878906 199.59375 L 174.984375 199.59375 C 177.84375 199.59375 179.261719 198.1875 179.261719 195.339844 L 179.261719 190.21875 C 179.261719 189.09375 179.050781 188.167969 178.582031 187.5 C 176.308594 188.695312 174.082031 189.914062 171.808594 191.085938 Z M 171.808594 191.085938 "/>
<path style=" stroke:none;fill-rule:nonzero;fill:rgb(0%,0%,0%);fill-opacity:1;" d="M 181.605469 185.90625 C 183.09375 185.203125 184.628906 184.5 186.175781 183.890625 L 186.175781 182.542969 L 190.371094 182.542969 C 192.246094 182.109375 194.191406 181.839844 196.101562 182.109375 C 196.78125 182.167969 197.425781 182.355469 198.082031 182.542969 L 198.234375 182.542969 L 198.234375 182.601562 C 200.109375 183.28125 201.773438 184.40625 203.414062 185.636719 L 203.414062 181.710938 C 203.414062 178.863281 201.960938 177.433594 199.089844 177.433594 L 185.308594 177.433594 C 182.4375 177.433594 180.996094 178.863281 180.996094 181.710938 L 180.996094 186.210938 C 181.207031 186.117188 181.394531 186 181.605469 185.90625 Z M 181.605469 185.90625 "/>
<path style=" stroke:none;fill-rule:nonzero;fill:rgb(8.627451%,3.921569%,40%);fill-opacity:1;" d="M 202.183594 184.839844 C 201.035156 184.066406 199.839844 183.246094 198.539062 182.753906 C 198.421875 182.71875 198.328125 182.695312 198.234375 182.660156 L 198.234375 187.6875 L 186.175781 187.6875 L 186.175781 183.914062 C 185.367188 184.253906 184.570312 184.59375 183.796875 184.933594 C 182.871094 185.355469 181.921875 185.8125 180.996094 186.28125 L 180.996094 199.59375 L 186.175781 199.59375 L 186.175781 192.796875 L 198.234375 192.796875 L 198.234375 199.59375 L 203.414062 199.59375 L 203.414062 185.695312 C 203.015625 185.390625 202.582031 185.109375 202.183594 184.839844 Z M 202.183594 184.839844 "/>
<path style=" stroke:none;fill-rule:nonzero;fill:rgb(0%,0%,0%);fill-opacity:1;" d="M 190.394531 182.542969 L 197.917969 182.542969 C 195.492188 181.78125 192.925781 181.957031 190.394531 182.542969 Z M 190.394531 182.542969 "/>
<path style=" stroke:none;fill-rule:nonzero;fill:rgb(8.627451%,3.921569%,40%);fill-opacity:1;" d="M 205.535156 187.347656 C 205.417969 187.21875 205.265625 187.136719 205.136719 187.007812 "/>
<path style=" stroke:none;fill-rule:nonzero;fill:rgb(0%,0%,0%);fill-opacity:1;" d="M 224.847656 191.941406 L 225.457031 191.167969 C 226.265625 190.195312 226.664062 189.152344 226.664062 188.085938 L 226.664062 178.289062 L 221.519531 178.289062 L 221.519531 187.40625 L 218.589844 191.296875 C 220.652344 191.695312 222.75 191.90625 224.847656 191.941406 Z M 224.847656 191.941406 "/>
<path style=" stroke:none;fill-rule:nonzero;fill:rgb(8.627451%,3.921569%,40%);fill-opacity:1;" d="M 221.917969 191.847656 C 220.769531 191.71875 219.667969 191.542969 218.554688 191.355469 L 215.472656 195.492188 L 210.785156 189.1875 C 209.332031 188.695312 207.914062 188.144531 206.53125 187.558594 C 206.496094 187.558594 206.496094 187.5 206.53125 187.535156 C 207.914062 188.085938 209.308594 188.636719 210.726562 189.117188 L 209.425781 187.40625 L 209.425781 178.289062 L 204.28125 178.289062 L 204.28125 188.085938 C 204.28125 189.152344 204.679688 190.195312 205.476562 191.167969 L 206.496094 192.492188 L 208.535156 195.035156 L 210.597656 197.601562 L 211.652344 198.855469 C 212.484375 199.933594 213.410156 200.449219 214.394531 200.449219 L 216.585938 200.449219 C 217.570312 200.449219 218.496094 199.933594 219.328125 198.855469 L 220.371094 197.542969 L 224.414062 192.433594 L 224.8125 191.964844 C 223.863281 191.964844 222.867188 191.941406 221.917969 191.847656 Z M 221.917969 191.847656 "/>
<path style=" stroke:none;fill-rule:nonzero;fill:rgb(8.627451%,3.921569%,40%);fill-opacity:1;" d="M 235.265625 190.5 C 233.015625 191.109375 230.707031 191.566406 228.386719 191.8125 L 228.386719 196.195312 C 228.386719 199.042969 229.839844 200.449219 232.710938 200.449219 L 250.78125 200.449219 L 250.78125 195.339844 L 233.578125 195.339844 L 233.578125 191.941406 L 250.78125 191.941406 L 250.78125 186.832031 L 245.542969 186.832031 C 242.179688 188.203125 238.757812 189.515625 235.265625 190.5 Z M 235.265625 190.5 "/>
<path style=" stroke:none;fill-rule:nonzero;fill:rgb(0%,0%,0%);fill-opacity:1;" d="M 232.710938 178.289062 C 229.839844 178.289062 228.386719 179.71875 228.386719 182.542969 L 228.386719 191.789062 C 229.628906 191.660156 230.824219 191.484375 232.03125 191.238281 C 236.625 190.289062 241.066406 188.601562 245.414062 186.832031 L 233.578125 186.832031 L 233.578125 183.398438 L 250.78125 183.398438 L 250.78125 178.289062 Z M 232.710938 178.289062 "/>
<path style=" stroke:none;fill-rule:evenodd;fill:rgb(0%,0%,0%);fill-opacity:1;" d="M 65.871094 187.5 C 66.339844 187.863281 66.761719 188.238281 67.253906 188.566406 C 68.15625 187.40625 68.34375 187.195312 66.984375 185.753906 C 66.609375 186.339844 66.246094 186.914062 65.871094 187.5 Z M 65.871094 187.5 "/>
<path style=" stroke:none;fill-rule:evenodd;fill:rgb(12.941176%,12.941176%,12.941176%);fill-opacity:1;" d="M 63.808594 170.449219 C 67.933594 176.355469 68.027344 176.414062 64.300781 182.542969 C 63.128906 184.464844 63.222656 185.753906 65.132812 187.007812 C 65.378906 187.160156 65.589844 187.3125 65.8125 187.464844 C 66.082031 187.042969 66.398438 186.585938 66.667969 186.152344 C 66.761719 186 66.855469 185.882812 66.949219 185.71875 C 66.644531 185.414062 66.269531 185.050781 65.8125 184.59375 C 66.082031 184.007812 66.246094 183.550781 66.515625 183.1875 C 69.726562 179.332031 70.933594 175.441406 66.796875 171.433594 C 66.644531 171.304688 66.515625 171.117188 66.492188 170.941406 C 66 168.09375 63.808594 167.296875 60.972656 167.238281 C 60.140625 167.203125 59.332031 166.933594 58.5 166.804688 C 57.269531 166.59375 55.851562 166.957031 55.628906 165.058594 C 55.417969 163.21875 56.25 162.550781 57.972656 162.152344 C 62.167969 161.203125 64.945312 159.210938 64.605469 154.957031 C 64.546875 154.347656 64.828125 153.609375 65.167969 153.09375 C 66.761719 150.703125 66.082031 148.78125 63.808594 147.09375 C 63.410156 146.8125 63.152344 146.390625 62.789062 146.050781 C 61.675781 145.007812 60.785156 144.152344 62.050781 142.535156 C 63.28125 140.90625 64.640625 141.1875 66.023438 141.761719 C 69.328125 143.144531 72.28125 143.484375 74.660156 140.414062 C 74.847656 140.203125 75.152344 140.050781 75.433594 139.957031 C 79.382812 138.28125 81.351562 135.761719 80.460938 131.660156 C 80.332031 131.085938 81.691406 129.855469 82.582031 129.609375 C 83.484375 129.398438 85.359375 129.761719 85.640625 130.3125 C 87.433594 134.109375 90.445312 135.492188 94.863281 134.8125 C 95.261719 134.753906 95.71875 134.8125 96.09375 134.941406 C 99.609375 136.136719 101.742188 134.601562 103.40625 132.09375 C 104.390625 130.59375 105.503906 130.195312 107.507812 130.992188 C 109.570312 131.789062 109.628906 132.914062 109.171875 134.484375 C 108.363281 137.261719 109.171875 139.160156 111.667969 141.433594 C 115.054688 144.492188 117.984375 146.261719 122.800781 144.585938 C 123.421875 144.363281 125.015625 145.5 125.636719 146.332031 C 126.035156 146.90625 125.847656 148.5 125.332031 148.839844 C 121.195312 151.382812 120.175781 154.5 121.160156 158.941406 C 121.722656 161.449219 122.179688 163.253906 125.015625 164.109375 C 125.578125 164.296875 126.035156 164.789062 126.621094 164.941406 C 129.925781 165.914062 129.949219 167.71875 128.355469 170.050781 C 126.996094 170.167969 125.671875 170.414062 124.3125 170.355469 C 120.703125 170.167969 118.734375 171.515625 116.472656 174.28125 C 113.800781 177.585938 113.976562 180.09375 115.828125 183.246094 C 116.941406 185.144531 117.925781 187.253906 114.5625 188.566406 C 115.148438 189.1875 115.582031 189.644531 116.015625 190.101562 C 119.964844 187.40625 119.964844 187.40625 118.207031 183.339844 C 117.738281 182.203125 117.1875 181.101562 116.847656 179.941406 C 116.636719 179.296875 116.449219 178.40625 116.789062 177.890625 C 119.003906 174.585938 121.078125 170.964844 126.65625 172.289062 C 127.335938 172.441406 128.132812 172.3125 128.847656 172.195312 C 129.398438 172.066406 130.289062 171.855469 130.417969 171.515625 C 131.003906 169.652344 131.742188 167.71875 131.648438 165.855469 C 131.589844 165.058594 129.679688 164.296875 128.53125 163.59375 C 126.902344 162.609375 124.464844 162.035156 123.785156 160.6875 C 122.800781 158.789062 122.765625 156.339844 123.011719 154.160156 C 123.105469 153.152344 124.839844 152.296875 125.789062 151.347656 C 126.867188 150.28125 128.941406 149.015625 128.777344 148.101562 C 128.472656 146.167969 127.183594 144.28125 125.789062 142.746094 C 125.296875 142.195312 123.386719 142.617188 122.121094 142.617188 C 120.246094 142.617188 117.738281 143.355469 116.566406 142.558594 C 110.648438 138.492188 110.707031 138.210938 111.878906 131.449219 C 111.914062 131.261719 111.820312 131.085938 111.726562 130.617188 C 109.910156 129.914062 108 128.964844 105.960938 128.390625 C 105.1875 128.203125 103.652344 128.542969 103.335938 129.058594 C 101.121094 132.667969 97.910156 133.78125 93.5625 132.703125 C 93.292969 132.644531 92.953125 132.644531 92.636719 132.703125 C 90.726562 132.984375 89.683594 132.152344 88.6875 130.710938 C 85.757812 126.457031 84.925781 126.246094 79.875 128.261719 C 79.136719 128.566406 78.175781 129.644531 78.269531 130.160156 C 79.230469 134.449219 77.132812 137.144531 73.054688 139.007812 C 72.785156 139.136719 72.503906 139.3125 72.351562 139.535156 C 71.238281 140.882812 69.855469 140.8125 68.214844 140.355469 C 62.050781 138.609375 62.050781 138.644531 58.722656 143.660156 C 58.558594 143.882812 58.5 144.117188 58.382812 144.363281 C 58.59375 144.644531 58.6875 144.949219 58.898438 145.101562 C 63.09375 148.101562 64.113281 151.59375 62.203125 156.210938 C 61.464844 158.015625 60.75 158.90625 58.898438 159.585938 C 52.828125 161.847656 52.828125 161.882812 53.871094 167.753906 C 53.90625 167.90625 54.09375 168.058594 54.1875 168.210938 C 56.742188 168.609375 59.308594 168.949219 61.828125 169.441406 C 62.542969 169.558594 63.433594 169.933594 63.808594 170.449219 Z M 63.808594 170.449219 "/>
<path style=" stroke:none;fill-rule:evenodd;fill:rgb(0%,0%,0%);fill-opacity:1;" d="M 108.339844 171.609375 C 105.867188 170.789062 107.507812 169.6875 108.117188 168.667969 C 113.917969 159.667969 109.113281 148.160156 98.0625 145.136719 C 90.855469 143.144531 84.316406 144.609375 79.289062 149.636719 C 74.074219 154.78125 72.996094 160.78125 76.136719 167.203125 C 76.757812 168.457031 77.648438 169.617188 78.421875 170.847656 C 77.132812 172.59375 76.417969 171.585938 75.550781 170.449219 C 68.0625 160.441406 73.863281 146.484375 86.964844 143.050781 C 95.636719 140.789062 104.695312 143.90625 109.722656 150.890625 C 114.292969 157.21875 113.730469 165.984375 108.339844 171.609375 Z M 108.339844 171.609375 "/>
</g>
</svg>
